<svg xmlns="http://www.w3.org/2000/svg" xml:space="preserve" width="2048" height="2048" style="shape-rendering:geometricPrecision;text-rendering:geometricPrecision;image-rendering:optimizeQuality;fill-rule:evenodd;clip-rule:evenodd"><defs><style>.fil2{fill:#fff;fill-rule:nonzero}</style></defs><g id="Layer_x0020_1"><rect width="2048" height="2048" rx="256.001" ry="256.001" style="fill:#8bc34a"/><g id="_344596744"><path id="_344598664" d="M294.774 1231.32zm442.852-500.115h573.976l.125.125c62.67.432 121.93 23.843 171.621 60.438 53.605 39.476 96.523 94.68 120.62 152.894 5.194 12.564 9.274 23.758 13.157 34.413 11.857 32.535 21.607 59.284 50.759 83.075 26.277 21.451 47.66 47.203 62.658 76.412 14.5 28.243 22.913 59.542 23.887 93.132v.5c.012.829 5.3 266.025-77.072 331.46v113.193c0 23.31-9.483 44.465-24.822 59.809-15.407 15.412-36.594 24.948-59.918 24.948h-116.934c-23.406 0-44.593-9.49-59.928-24.826-15.34-15.342-24.828-36.534-24.828-59.931v-98.2H658.332v98.2c0 23.317-9.542 44.513-24.965 59.927-15.349 15.339-36.506 24.83-59.824 24.83H456.61c-23.314 0-44.506-9.539-59.915-24.954-15.337-15.342-24.826-36.492-24.826-59.803v-111.095c-18.423-11.208-33.049-28.856-44.144-51.542-14.298-29.239-22.768-67.313-25.946-110.34-1.425-19.288-2.87-37.862-4.06-53.146-4.674-60.094-5.176-66.55-2.935-119.405 1.027-33.452 9.431-64.623 23.882-92.76 15.004-29.21 36.392-54.961 62.677-76.41 29.123-23.768 38.869-50.49 50.717-82.98 3.897-10.688 7.994-21.92 13.206-34.508 24.091-58.214 67.01-113.417 120.612-152.89 49.695-36.598 108.954-60.01 171.621-60.441l.126-.126zm94.407 611.189h384v64.002h-384v-64.002zm-366.754 79.102c-5.628-2.365-10.929-5.882-15.6-10.408-13.785-13.442-23.323-30.568-28.296-48.758-5.038-18.43-5.383-38.195-.69-56.463 5.252-20.403 16.235-38.897 31.062-53.591 14.67-14.538 33.299-25.594 54.017-31.297l.125-.125c4.357-1.175 9.061-1.73 13.96-1.65 4.916.084 9.684.811 14.136 2.2l-.017.052 170.85 46.696 1 .25a50.315 50.315 0 0 1 24.237 16.378 50.322 50.322 0 0 1 11.03 27.154v.126c.98 10.893 2.426 19.79 3.943 29.13l.046.284c.918 5.583 1.792 10.905 2.085 12.893.635 4.31 1.293 9.25 1.983 15.338.197 1.782.276 3.878.24 6.263-.195 12.965-5.171 24.632-13.217 33.347a50.66 50.66 0 0 1-31.613 15.989c-1.745.192-3.839.274-6.283.24l-213.933-.239h-.75c-6.55-.156-12.752-1.472-18.315-3.81zm1055.16-394.481c1.581 8.269 3.101 16.21 3.88 18.348l-.027.011c1.82 4.86 1.304 3.45 1.437 3.816 1.392 3.808-1.179-3.053 1.067 2.995l16.012 43.126H506.252l16.182-43.126c.783-2.089.25-.746 1.226-3.422.286-.788-.377 1.045 1.278-3.389l-.029-.01c.782-2.151 2.31-10.12 3.897-18.413 2.41-12.586 4.931-25.748 8.558-34.494l.045.019c10.493-25.32 47.399-85.303 102.865-127.325 36.337-27.53 80.988-48.084 132.534-48.438l.125-.125h503.365l.126.125c51.546.354 96.198 20.911 132.535 48.44 55.464 42.023 92.367 102.005 102.855 127.323l.044-.019c3.64 8.729 6.168 21.942 8.581 34.558zm-190.061 394.533a50.32 50.32 0 0 1-17.443-12.361l.069-.063c-4.95-5.422-8.58-11.674-10.754-18.292-2.186-6.655-2.965-13.811-2.196-21.003v-.124c1.101-9.731 2.525-18.517 3.887-26.935l.19-1.17v-.126c.723-4.413 1.428-8.743 2.157-13.947.738-5.267 1.378-10.44 1.847-15.577a50.356 50.356 0 0 1 11.027-27.176 50.17 50.17 0 0 1 24.241-16.371l1-.25 170.849-46.697-.017-.052c4.45-1.389 9.207-2.115 14.127-2.2 4.882-.08 9.584.474 13.97 1.65l.25.125c20.597 5.674 39.19 16.735 53.894 31.31 14.824 14.695 25.81 33.188 31.06 53.595 4.694 18.26 4.348 38.022-.692 56.45-4.973 18.185-14.512 35.313-28.295 48.754-4.671 4.526-9.972 8.043-15.6 10.408-5.563 2.337-11.761 3.653-18.315 3.809h-.75l-213.933.239c-7.167.106-14.164-1.26-20.573-3.996z" style="fill:#fff"/><path id="_344603176" class="fil2" d="m955.419 606.398.002-.002c0 .006 0 .006-.002.002z"/><path id="_344600008" class="fil2" d="m955.418 606.39-.002.001-.004-.007z"/><path id="_344603224" class="fil2" d="M955.417 606.395h.005v-.001l-.006-.001z"/><path id="_344597728" class="fil2" d="M955.424 606.396c0 .006 0 .006.002.002l-.002-.002z"/><path id="_344598472" class="fil2" d="M955.422 606.395h-.005l.002.003.003-.002z"/><path id="_344600152" class="fil2" d="M955.424 606.39v.004l.005-.001.002-.006-.005.004z"/><path id="_344597920" class="fil2" d="M955.424 606.388v.002l-.002-.001-.004.001-.006-.006.01.005v.005h.002v.002l.002.002.002-.003h-.004.004l.001-.002-.003-.002.005-.004.001-.003z"/><path id="_344596072" class="fil2" d="m955.426 350.391-.002.002c0-.006 0-.007.002-.002z"/><path id="_344599240" class="fil2" d="m955.426 350.398.003-.001.003.007z"/><path id="_344602456" class="fil2" d="M955.429 350.394h-.005v.002l.005.001z"/><path id="_344597128" class="fil2" d="M955.422 350.393c0-.007-.001-.007-.004-.004l.004.004z"/><path id="_344600752" class="fil2" d="M955.422 350.394v-.001l-.004-.003-.001.004z"/><path id="_344596408" class="fil2" d="M955.424 350.394h.005l-.003-.003-.002.002z"/><path id="_344596840" class="fil2" d="M955.422 350.399v-.003l-.006.001-.004.007.003-.001.004-.005-.003-.001.001-.003h.005v.002h.002v.003l.002-.001.006.006-.008-.004v-.001z"/><path id="_344600488" class="fil2" d="M955.422 350.4v-.001l-.003-.001-.004.005z"/><path id="_344600224" class="fil2" d="M1010.82 318.394h40.603c44.033 0 84.041 17.992 113.026 46.975 28.983 28.984 46.975 68.993 46.975 113.026v.001c0 44.033-17.992 84.041-46.975 113.026-28.984 28.983-68.993 46.975-113.026 46.975h-40.604a64.495 64.495 0 0 1-10.17 13.225c-11.586 11.583-27.595 18.774-45.226 18.774-17.633 0-33.64-7.191-45.226-18.774a64.497 64.497 0 0 1-10.17-13.225H859.422V318.395h40.603a64.458 64.458 0 0 1 10.172-13.226c11.586-11.583 27.593-18.774 45.226-18.774 17.631 0 33.64 7.191 45.225 18.774a64.461 64.461 0 0 1 10.172 13.225z"/><path id="_344601352" class="fil2" d="M1051.42 382.395H923.42v191.999h128c26.367 0 50.361-10.81 67.775-28.224 17.414-17.414 28.224-41.408 28.224-67.775v-.001c0-26.367-10.81-50.361-28.224-67.775-17.414-17.414-41.408-28.224-67.775-28.224z"/><path id="_344602864" class="fil2" d="M763.385 382.394h128.037v64.002H763.385z"/><path id="_344600656" class="fil2" d="M763.385 511.225h128.037v64.002H763.385z"/><path id="_344601280" class="fil2" d="M1192.76 446.394h366.626c36.333 0 69.341 14.842 93.25 38.75 23.908 23.91 38.75 56.92 38.75 93.25v508.75h-64.002v-508.75c0-18.666-7.66-35.66-20-47.999-12.338-12.339-29.332-20-47.998-20H1192.76v-64.001z"/></g></g></svg>